<svg xmlns="http://www.w3.org/2000/svg" width="375.533" height="68.347" viewBox="0 0 375.533 68.347">
  <g id="Group_29" data-name="Group 29" transform="translate(-814 -4243.875)">
    <g id="Group_16" data-name="Group 16" transform="translate(814 4243.875)">
      <g id="Group_1" data-name="Group 1" transform="translate(0 15.48)">
        <path id="Path_12" data-name="Path 12" d="M143.009,797.471a73.375,73.375,0,0,1-7.661,15.482H134c-2.572,0-4.535-2.279-5.639-4.205a51.53,51.53,0,0,1-5.454-14.139c-1.042,4.791-4.9,14.547-7.845,18.344h-1.1c-2.451,0-4.78-2.337-5.884-4.206a73.375,73.375,0,0,1-9.44-27.692h4.414a4.744,4.744,0,0,1,4.78,3.8,66.921,66.921,0,0,0,5.273,17.059c3-6.252,4.658-13.027,6.253-19.688h2.7a5.416,5.416,0,0,1,5.822,4.441,71.771,71.771,0,0,0,5.333,15.248,84.175,84.175,0,0,0,6.19-21.031h3.433c2.329,0,3.987.991,3.987,3.387a64.111,64.111,0,0,1-3.809,13.2Z" transform="translate(-98.633 -770.244)" fill="#FFFFFF"/>
        <path id="Path_13" data-name="Path 13" d="M223.394,799.56H218c.613,3.975,4.412,6.488,9.26,6.488,3.433,0,7.478-.643,10.114-2.981h.306v2.456c0,4.034-2.881,7.131-11.951,7.131a15.938,15.938,0,0,1-16.243-15.844c0-10.523,6.742-17.129,16.181-17.129,6.865,0,13.239,4.676,13.239,12.218C238.9,797.687,234.308,799.56,223.394,799.56Zm1.532-13.33A6.9,6.9,0,0,0,218,792.952l-.06,1.053h3.677c7.785,0,9.562-.819,9.562-3.042,0-3.156-2.451-4.734-6.252-4.734Z" transform="translate(-159.146 -769.585)" fill="#FFFFFF"/>
        <path id="Path_14" data-name="Path 14" d="M295.8,799.56h-5.4c.613,3.975,4.414,6.488,9.26,6.488,3.433,0,7.479-.643,10.114-2.981h.306v2.456c0,4.034-2.88,7.131-11.951,7.131A15.938,15.938,0,0,1,281.89,796.81c0-10.523,6.742-17.129,16.181-17.129,6.865,0,13.239,4.676,13.239,12.218C311.309,797.687,306.712,799.56,295.8,799.56Zm1.532-13.33a6.9,6.9,0,0,0-6.925,6.722l-.06,1.053h3.677c7.785,0,9.562-.819,9.562-3.042,0-3.156-2.453-4.734-6.252-4.734Z" transform="translate(-200.56 -769.585)" fill="#FFFFFF"/>
        <path id="Path_15" data-name="Path 15" d="M369.679,801.3c-8.7,0-15.384-7.451-15.384-16.346,0-10.637,5.273-17.548,14.894-17.548a9.258,9.258,0,0,1,4.458,1.254,2.51,2.51,0,0,0,3.755-2.18v-9.17h2.512c3.923,0,5.639,2.222,5.639,5.468v22.838C385.553,795.048,381.018,801.3,369.679,801.3Zm-.43-27.1c-4.168,0-6.865,3.966-6.865,9.2,0,6.731,3.555,11.118,8.275,11.118,4.6,0,6.619-3.366,6.619-9.26C377.278,777.139,373.663,774.194,369.249,774.194Z" transform="translate(-240.843 -757.307)" fill="#FFFFFF"/>
        <path id="Path_16" data-name="Path 16" d="M480.435,801.3c-8.457,0-15.568-6.79-15.568-16.526V757.307h2.82c3.187,0,5.394,1.8,5.394,5.589v3.7a2.512,2.512,0,0,0,3.786,2.164,10.1,10.1,0,0,1,5.164-1.361c8.4,0,14.832,6.731,14.832,16.287C496.862,793.426,490.487,801.3,480.435,801.3Zm0-26.743c-4.167,0-7.293,4.027-7.293,9.075,0,7.453,3.249,10.516,8.152,10.516,4.108,0,7.048-3.847,7.048-9.075,0-7.872-2.879-10.517-7.907-10.517Z" transform="translate(-302.355 -757.307)" fill="#FFFFFF"/>
        <path id="Path_17" data-name="Path 17" d="M561.507,814.452c-8.152,0-14.588-5.287-14.588-14.723V781.278h1.533c4.719,0,6.8,1.983,6.8,5.771v11.9c0,5.949,2.943,8.359,6.688,8.359,3.371,0,5.762-2.283,5.762-7.813V781.283h1.47c4.78,0,6.8,1.983,6.8,5.771v12.129C575.973,809.285,571.129,814.452,561.507,814.452Z" transform="translate(-347.965 -770.944)" fill="#FFFFFF"/>
        <path id="Path_18" data-name="Path 18" d="M637.561,801.3c-8.7,0-15.384-7.451-15.384-16.346,0-10.637,5.273-17.548,14.894-17.548a9.26,9.26,0,0,1,4.459,1.254,2.511,2.511,0,0,0,3.755-2.18v-9.17H647.8c3.922,0,5.639,2.222,5.639,5.468v22.838C653.435,795.048,648.9,801.3,637.561,801.3Zm-.43-27.1c-4.168,0-6.865,3.966-6.865,9.2,0,6.731,3.555,11.118,8.275,11.118,4.6,0,6.619-3.366,6.619-9.26C645.16,777.139,641.545,774.194,637.131,774.194Z" transform="translate(-389.851 -757.307)" fill="#FFFFFF"/>
        <path id="Path_19" data-name="Path 19" d="M717.708,801.3c-8.7,0-15.384-7.451-15.384-16.346,0-10.637,5.273-17.548,14.894-17.548a9.258,9.258,0,0,1,4.458,1.254,2.511,2.511,0,0,0,3.755-2.18v-9.17h2.512c3.922,0,5.639,2.222,5.639,5.468v22.838C733.582,795.048,729.043,801.3,717.708,801.3Zm-.43-27.1c-4.168,0-6.865,3.966-6.865,9.2,0,6.731,3.555,11.118,8.275,11.118,4.6,0,6.619-3.366,6.619-9.26C725.314,777.139,721.692,774.194,717.278,774.194Z" transform="translate(-434.974 -757.307)" fill="#FFFFFF"/>
        <path id="Path_20" data-name="Path 20" d="M785.382,824.249c-3.065,0-5.761-1.983-5.761-4.989V817.7l4.658-.3c3-.18,4.045-1.381,5.822-5.949-4.352-6.43-10.6-22.537-11.7-30.17h4.351a4.777,4.777,0,0,1,4.782,3.786,68.851,68.851,0,0,0,6.621,18.691,89.9,89.9,0,0,0,6.43-22.477h3.555c2.638,0,3.858,1.142,3.858,3.786,0,3.426-5.762,18.209-7.293,21.695C794.577,820.942,791.327,824.249,785.382,824.249Z" transform="translate(-476.718 -771.382)" fill="#FFFFFF"/>
      </g>
      <path id="Path_21" data-name="Path 21" d="M890.161,758a14.048,14.048,0,0,1-9.625.437c-6.9-2.288-9-9.4-9.188-10.064l-3.938-14.439,12.251,10.938L884.47,723c2.186,7.292,3.965,14.174,6.153,21.466,3.354-3.215,7.12-6.006,10.474-9.215-.875,4.667-2.161,9.334-3.036,14a14.166,14.166,0,0,1-7.9,8.749Z" transform="translate(-525.563 -723)" fill="#FFFFFF"/>
    </g>
  </g>
</svg>
