<svg xmlns="http://www.w3.org/2000/svg" width="27.185" height="23.111" viewBox="0 0 27.185 23.111"><g transform="translate(0 0)"><path d="M26.946,58.951,15.019,39.171a1.666,1.666,0,0,0-2.853,0L.239,58.951a1.666,1.666,0,0,0,1.426,2.526H25.52a1.666,1.666,0,0,0,1.426-2.526ZM13.6,45.207a1.129,1.129,0,0,1,1.265,1.071c0,2.09-.246,5.093-.246,7.184,0,.545-.6.773-1.019.773-.562,0-1.036-.228-1.036-.773,0-2.09-.246-5.093-.246-7.184C12.32,45.594,12.881,45.207,13.6,45.207Zm.018,12.944A1.352,1.352,0,1,1,14.954,56.8,1.373,1.373,0,0,1,13.619,58.152Z" transform="translate(0 -38.365)" fill="#cc0000"/></g></svg>