<svg xmlns="http://www.w3.org/2000/svg" width="67.429" height="70.155" viewBox="0 0 67.429 70.155">
  <path id="Path_184" data-name="Path 184" d="M1121.518,502.655V504.7a3.242,3.242,0,0,1-2.752,3.213l-.505,1.852a2.313,2.313,0,0,1-2.237,1.715h-5a2.315,2.315,0,0,1-2.236-1.715l-.49-1.852a3.262,3.262,0,0,1-2.768-3.229v-2.046a1.964,1.964,0,0,1,1.963-1.973h12.055a1.986,1.986,0,0,1,1.973,1.989m9.274-27.6a17.179,17.179,0,0,1-4.849,11.985,15.832,15.832,0,0,0-4.237,8.6,2.86,2.86,0,0,1-2.828,2.408h-10.712a2.829,2.829,0,0,1-2.809-2.4,16.005,16.005,0,0,0-4.263-8.622,17.263,17.263,0,1,1,29.709-11.969ZM1115.47,464.6a1.947,1.947,0,0,0-1.947-1.947,12.475,12.475,0,0,0-12.462,12.459,1.947,1.947,0,0,0,3.891,0,8.581,8.581,0,0,1,8.568-8.568,1.942,1.942,0,0,0,1.95-1.928Zm-1.938-12.475a1.947,1.947,0,0,0,1.938-1.947v-6.821a1.947,1.947,0,0,0-3.891-.172,1.44,1.44,0,0,0,0,.172v6.821a1.947,1.947,0,0,0,1.947,1.947Zm-22.916,22.913a1.949,1.949,0,0,0-1.941-1.953h-6.828a1.947,1.947,0,0,0-.168,3.891,1.5,1.5,0,0,0,.168,0h6.821a1.942,1.942,0,0,0,1.947-1.931Zm54.595-1.953h-6.818a1.947,1.947,0,0,0,0,3.891h6.818a1.947,1.947,0,1,0,.172-3.891h-.172m-50.628,18.157-4.833,4.83a1.949,1.949,0,0,0,2.749,2.765l4.817-4.836a1.943,1.943,0,0,0-2.733-2.758m36.527-31.837a1.956,1.956,0,0,0,1.371-.554l4.829-4.845a1.947,1.947,0,0,0-2.761-2.746l-4.817,4.83a1.943,1.943,0,0,0-.009,2.746l.009.01a1.972,1.972,0,0,0,1.378.56m-36.527-.582a1.943,1.943,0,0,0,2.733-2.746l-4.817-4.833a1.954,1.954,0,1,0-2.765,2.762Zm37.9,32.42a1.946,1.946,0,0,0-2.746,2.758l4.817,4.836a1.944,1.944,0,1,0,2.813-2.685l-.073-.07Z" transform="translate(-1079.816 -441.326)" fill="#fff"/>
</svg>
