<svg xmlns="http://www.w3.org/2000/svg" width="18.005" height="28.007" viewBox="0 0 18.005 28.007">
  <g id="light-bulb" transform="translate(-6.668 -6.674)">
    <path id="XMLID_49_" d="M29.637,30.07v1.068A1.694,1.694,0,0,1,28.2,32.815l-.263.97a1.207,1.207,0,0,1-1.166.895h-2.61A1.207,1.207,0,0,1,23,33.786l-.256-.97A1.7,1.7,0,0,1,21.3,31.131V30.063a1.027,1.027,0,0,1,1.03-1.03h6.28A1.038,1.038,0,0,1,29.637,30.07Zm4.836-14.394a8.959,8.959,0,0,1-2.527,6.25,8.257,8.257,0,0,0-2.211,4.482,1.489,1.489,0,0,1-1.474,1.256H22.673a1.474,1.474,0,0,1-1.467-1.248,8.349,8.349,0,0,0-2.226-4.5,9,9,0,1,1,15.492-6.242Zm-7.987-5.452A1.016,1.016,0,0,0,25.47,9.208a6.5,6.5,0,0,0-6.5,6.5,1.015,1.015,0,0,0,2.031,0,4.473,4.473,0,0,1,4.467-4.467A1.011,1.011,0,0,0,26.486,10.224Z" transform="translate(-9.8 0)" fill="#23421f"/>
  </g>
</svg>
