<svg id="Group_242" data-name="Group 242" xmlns="http://www.w3.org/2000/svg" width="65.663" height="65.67" viewBox="0 0 65.663 65.67">
  <path id="Path_123" data-name="Path 123" d="M798.218,620.047a4.756,4.756,0,0,1,3.147,1.122,7.683,7.683,0,0,0,9.424,0,4.99,4.99,0,0,1,6.305,0,7.7,7.7,0,0,0,9.43,0,4.765,4.765,0,0,1,3.155-1.123,1.368,1.368,0,1,0,0-2.735h0a7.418,7.418,0,0,0-4.717,1.612,4.99,4.99,0,0,1-6.308,0,7.7,7.7,0,0,0-9.429,0,4.978,4.978,0,0,1-6.3,0,7.4,7.4,0,0,0-4.71-1.613,1.368,1.368,0,0,0,0,2.735Z" transform="translate(-796.849 -589.951)" fill="#fff"/>
  <path id="Path_124" data-name="Path 124" d="M829.68,640.588a1.368,1.368,0,0,0,0-2.737,7.423,7.423,0,0,0-4.717,1.614,4.989,4.989,0,0,1-6.307,0,7.7,7.7,0,0,0-9.43,0,4.978,4.978,0,0,1-6.3,0,7.4,7.4,0,0,0-4.71-1.615,1.368,1.368,0,0,0,0,2.737,4.749,4.749,0,0,1,3.147,1.122,7.688,7.688,0,0,0,9.424,0,4.987,4.987,0,0,1,6.305,0,7.7,7.7,0,0,0,9.432,0,4.752,4.752,0,0,1,3.154-1.122" transform="translate(-796.849 -585.869)" fill="#fff"/>
  <path id="Path_125" data-name="Path 125" d="M798.218,633.741a4.757,4.757,0,0,1,3.147,1.122,7.4,7.4,0,0,0,4.71,1.613,1.368,1.368,0,0,0,0-2.735,4.756,4.756,0,0,1-3.147-1.122,7.4,7.4,0,0,0-4.71-1.615,1.368,1.368,0,1,0,0,2.737" transform="translate(-796.849 -587.23)" fill="#fff"/>
  <path id="Path_126" data-name="Path 126" d="M831.914,632.588A8.083,8.083,0,0,0,827.073,631a7.43,7.43,0,0,0-4.717,1.612,4.988,4.988,0,0,1-6.308,0A7.426,7.426,0,0,0,811.333,631a1.368,1.368,0,0,0,0,2.737,4.748,4.748,0,0,1,3.154,1.125,7.706,7.706,0,0,0,9.433,0,4.752,4.752,0,0,1,3.154-1.125,5.46,5.46,0,0,1,3.366,1.153,8.084,8.084,0,0,0,4.842,1.582,1.368,1.368,0,1,0,0-2.735,5.474,5.474,0,0,1-3.367-1.153" transform="translate(-794.242 -587.23)" fill="#fff"/>
  <path id="Path_127" data-name="Path 127" d="M798.218,626.894a4.756,4.756,0,0,1,3.147,1.122,7.683,7.683,0,0,0,9.424,0,4.762,4.762,0,0,1,3.15-1.122,1.368,1.368,0,1,0,0-2.735,7.4,7.4,0,0,0-4.713,1.612,4.978,4.978,0,0,1-6.3,0,7.4,7.4,0,0,0-4.71-1.613,1.368,1.368,0,1,0,0,2.735" transform="translate(-796.849 -588.59)" fill="#fff"/>
  <path id="Path_128" data-name="Path 128" d="M841.49,626.894a1.368,1.368,0,0,0,0-2.735,7.4,7.4,0,0,0-4.713,1.612,4.977,4.977,0,0,1-6.3,0,7.694,7.694,0,0,0-9.427,0,4.764,4.764,0,0,1-3.153,1.123,1.368,1.368,0,0,0,0,2.737,7.43,7.43,0,0,0,4.716-1.612,4.981,4.981,0,0,1,6.3,0,7.688,7.688,0,0,0,9.423,0,4.754,4.754,0,0,1,3.151-1.124" transform="translate(-792.938 -588.59)" fill="#fff"/>
  <path id="Path_129" data-name="Path 129" d="M835.284,594.842a1.363,1.363,0,0,0-1.835,0c-.483.437-11.878,10.834-18.721,23.65a1.367,1.367,0,0,0,.542,1.84,16.494,16.494,0,0,1,1.545.967,3.892,3.892,0,0,0,.673.418,1.61,1.61,0,0,0,.613.128l.488-.014a1.384,1.384,0,0,0,.558-.139,4.8,4.8,0,0,0,.734-.479,10.034,10.034,0,0,1,6.276-2.1,4.109,4.109,0,0,1,4.1,4.1,4.04,4.04,0,0,1-.977,2.619,1.367,1.367,0,0,0,.167,1.926,1.393,1.393,0,0,0,.385.229,12.287,12.287,0,0,1,2.709,1.515,3.973,3.973,0,0,0,.674.419,1.416,1.416,0,0,0,.62.128l.482-.016a1.373,1.373,0,0,0,.559-.139,4.659,4.659,0,0,0,.729-.478,10.027,10.027,0,0,1,6.276-2.1,4.1,4.1,0,1,1,.107,8.208h-.107a1.373,1.373,0,0,0-.32.037,3.307,3.307,0,0,0-1.268.595,12.158,12.158,0,0,1-2.353,1.357,1.37,1.37,0,0,0-.734,1.792,1.4,1.4,0,0,0,.231.372,4.051,4.051,0,0,1,1.032,2.688,4.107,4.107,0,0,1-4.1,4.1,10.6,10.6,0,0,1-2.459-.3,1.407,1.407,0,0,0-1.177.411,1.617,1.617,0,0,0-.469,1.256,4.107,4.107,0,0,1-4.1,4.1,1.359,1.359,0,0,0-.319.038,3.356,3.356,0,0,0-1.273.6,12.091,12.091,0,0,1-2.807,1.492,1.369,1.369,0,0,0-.249,2.453,24.614,24.614,0,0,0,37.481-20.993c0-19.029-22.74-39.811-23.707-40.686" transform="translate(-793.328 -594.487)" fill="#fff"/>
</svg>
