<svg id="drop-silhouette" xmlns="http://www.w3.org/2000/svg" width="19.101" height="27.254" viewBox="0 0 19.101 27.254">
  <path id="Path_178" data-name="Path 178" d="M72.688,7.6A67.462,67.462,0,0,0,67.5.288a.782.782,0,0,0-1.213,0A67.545,67.545,0,0,0,61.093,7.6c-2.49,4.111-3.753,7.51-3.753,10.1a9.55,9.55,0,0,0,19.1,0C76.441,15.11,75.178,11.71,72.688,7.6ZM68.2,23.736a6.949,6.949,0,0,1-1.721.215,6.261,6.261,0,0,1-6.471-6.011,7.684,7.684,0,0,1,.627-2.779.409.409,0,0,1,.468-.234.378.378,0,0,1,.31.4,6.048,6.048,0,0,0-.037.65A7.269,7.269,0,0,0,68.138,23a.388.388,0,0,1,.357.342A.377.377,0,0,1,68.2,23.736Z" transform="translate(-57.34 0)" fill="#23421f"/>
</svg>
