<svg xmlns="http://www.w3.org/2000/svg" width="32.974" height="65.863" viewBox="0 0 32.974 65.863">
  <g id="Group_354" data-name="Group 354" transform="translate(-3887.487 138.342)">
    <path id="Path_132" data-name="Path 132" d="M1139.788,631.369V605.19a10.991,10.991,0,0,0-21.982,0v26.18a16.487,16.487,0,1,0,21.982,0M1128.8,654.651a10.991,10.991,0,0,1-7.326-19.184l1.83-1.639V605.193a5.5,5.5,0,0,1,10.992,0v28.635l1.83,1.639a10.991,10.991,0,0,1-7.327,19.184" transform="translate(2775.177 -732.624)" fill="#fff"/>
    <rect id="Rectangle_121" data-name="Rectangle 121" width="5.495" height="32.973" transform="translate(3901.226 -116.444)" fill="#fff"/>
    <path id="Path_133" data-name="Path 133" d="M1127.812,631.17a8.123,8.123,0,1,1-7.793,8.117,7.96,7.96,0,0,1,7.793-8.117" transform="translate(2776.066 -728.375)" fill="#fff"/>
  </g>
</svg>
