<svg xmlns="http://www.w3.org/2000/svg" width="14.494" height="28.989" viewBox="0 0 14.494 28.989">
  <path id="thermometer-three-quarters-solid" d="M10.871,21.741A3.624,3.624,0,1,1,5.436,18.6V9.059a1.812,1.812,0,0,1,3.624,0V18.6A3.621,3.621,0,0,1,10.871,21.741Zm1.812-4.793a7.247,7.247,0,0,1-5.435,12.04H7.2a7.247,7.247,0,0,1-5.384-12.04V5.435a5.435,5.435,0,0,1,10.871,0Zm-.906,4.793a5.259,5.259,0,0,0-1.812-3.765V5.435a2.718,2.718,0,0,0-5.435,0V17.976a5.27,5.27,0,0,0-1.812,3.741,4.548,4.548,0,0,0,4.5,4.553h.033A4.535,4.535,0,0,0,11.777,21.741Z" transform="translate(0)" fill="#23421f"/>
</svg>
